<?xml version="1.0" encoding="UTF-8" standalone="no"?>
<!DOCTYPE svg PUBLIC "-//W3C//DTD SVG 1.1//EN"
 "http://www.w3.org/Graphics/SVG/1.1/DTD/svg11.dtd">
<!-- Generated by graphviz version 2.43.0 (0)
 -->
<!-- Title: RedSucursales Pages: 1 -->
<svg width="2596pt" height="426pt"
 viewBox="0.00 0.00 2596.00 426.27" xmlns="http://www.w3.org/2000/svg" xmlns:xlink="http://www.w3.org/1999/xlink">
<g id="graph0" class="graph" transform="scale(1 1) rotate(0) translate(4 422.27)">
<title>RedSucursales</title>
<polygon fill="white" stroke="transparent" points="-4,4 -4,-422.27 2592,-422.27 2592,4 -4,4"/>
<!-- 1 -->
<g id="node1" class="node">
<title>1</title>
<polygon fill="white" stroke="black" points="149,-210.27 0,-210.27 0,-172.27 149,-172.27 149,-210.27"/>
<text text-anchor="middle" x="74.5" y="-195.07" font-family="Arial" font-size="14.00">Sucursal Central</text>
<text text-anchor="middle" x="74.5" y="-180.07" font-family="Arial" font-size="14.00">Ciudad de Guatemala</text>
</g>
<!-- 2 -->
<g id="node2" class="node">
<title>2</title>
<polygon fill="white" stroke="black" points="490,-183.27 341,-183.27 341,-145.27 490,-145.27 490,-183.27"/>
<text text-anchor="middle" x="415.5" y="-168.07" font-family="Arial" font-size="14.00">Sucursal Zona 10</text>
<text text-anchor="middle" x="415.5" y="-153.07" font-family="Arial" font-size="14.00">Ciudad de Guatemala</text>
</g>
<!-- 1&#45;&gt;2 -->
<g id="edge1" class="edge">
<title>1&#45;&gt;2</title>
<path fill="none" stroke="black" d="M149.06,-185.41C202.5,-181.16 274.9,-175.39 330.6,-170.95"/>
<polygon fill="black" stroke="black" points="331.1,-174.43 340.79,-170.14 330.55,-167.45 331.1,-174.43"/>
<text text-anchor="middle" x="242.5" y="-186.67" font-family="Times,serif" font-size="12.00">Tiempo:15.0 | Costo:50.0</text>
</g>
<!-- 3 -->
<g id="node3" class="node">
<title>3</title>
<polygon fill="white" stroke="black" points="1880.5,-136.27 1767.5,-136.27 1767.5,-98.27 1880.5,-98.27 1880.5,-136.27"/>
<text text-anchor="middle" x="1824" y="-121.07" font-family="Arial" font-size="14.00">Sucursal Xela</text>
<text text-anchor="middle" x="1824" y="-106.07" font-family="Arial" font-size="14.00">Quetzaltenango</text>
</g>
<!-- 1&#45;&gt;3 -->
<g id="edge2" class="edge">
<title>1&#45;&gt;3</title>
<path fill="none" stroke="black" d="M99.34,-172.02C152.5,-131.12 286.15,-39.27 414.5,-39.27 414.5,-39.27 414.5,-39.27 1483.5,-39.27 1583.51,-39.27 1695.98,-71.82 1763.08,-94.87"/>
<polygon fill="black" stroke="black" points="1762.05,-98.21 1772.64,-98.19 1764.35,-91.6 1762.05,-98.21"/>
<text text-anchor="middle" x="957" y="-42.67" font-family="Times,serif" font-size="12.00">Tiempo:180.0 | Costo:350.0</text>
</g>
<!-- 4 -->
<g id="node4" class="node">
<title>4</title>
<polygon fill="white" stroke="black" points="832,-238.27 714,-238.27 714,-200.27 832,-200.27 832,-238.27"/>
<text text-anchor="middle" x="773" y="-223.07" font-family="Arial" font-size="14.00">Sucursal Antigua</text>
<text text-anchor="middle" x="773" y="-208.07" font-family="Arial" font-size="14.00">Sacatepéquez</text>
</g>
<!-- 1&#45;&gt;4 -->
<g id="edge3" class="edge">
<title>1&#45;&gt;4</title>
<path fill="none" stroke="black" d="M108.22,-210.29C125.17,-219.09 146.55,-228.61 167,-233.27 357.67,-276.72 590.9,-249.59 704.01,-231.54"/>
<polygon fill="black" stroke="black" points="704.61,-234.99 713.92,-229.93 703.49,-228.08 704.61,-234.99"/>
<text text-anchor="middle" x="415.5" y="-259.67" font-family="Times,serif" font-size="12.00">Tiempo:60.0 | Costo:120.0</text>
</g>
<!-- 5 -->
<g id="node5" class="node">
<title>5</title>
<polygon fill="white" stroke="black" points="1205,-311.27 1077,-311.27 1077,-273.27 1205,-273.27 1205,-311.27"/>
<text text-anchor="middle" x="1141" y="-296.07" font-family="Arial" font-size="14.00">Sucursal Escuintla</text>
<text text-anchor="middle" x="1141" y="-281.07" font-family="Arial" font-size="14.00">Escuintla</text>
</g>
<!-- 1&#45;&gt;5 -->
<g id="edge4" class="edge">
<title>1&#45;&gt;5</title>
<path fill="none" stroke="black" d="M82.18,-210.55C93.9,-240.99 121.37,-299.21 167,-323.27 473.78,-485.03 913.92,-367.55 1076.51,-314.56"/>
<polygon fill="black" stroke="black" points="1077.95,-317.77 1086.36,-311.31 1075.76,-311.12 1077.95,-317.77"/>
<text text-anchor="middle" x="592.5" y="-408.67" font-family="Times,serif" font-size="12.00">Tiempo:90.0 | Costo:180.0</text>
</g>
<!-- 6 -->
<g id="node6" class="node">
<title>6</title>
<polygon fill="white" stroke="black" points="1539,-232.27 1426,-232.27 1426,-194.27 1539,-194.27 1539,-232.27"/>
<text text-anchor="middle" x="1482.5" y="-217.07" font-family="Arial" font-size="14.00">Sucursal Cobán</text>
<text text-anchor="middle" x="1482.5" y="-202.07" font-family="Arial" font-size="14.00">Alta Verapaz</text>
</g>
<!-- 1&#45;&gt;6 -->
<g id="edge5" class="edge">
<title>1&#45;&gt;6</title>
<path fill="none" stroke="black" d="M103.34,-172.03C120.78,-161.11 144.21,-148.42 167,-142.27 239.56,-122.69 260.85,-137.61 336,-136.27 406.66,-135.02 424.33,-136.07 495,-136.27 573.67,-136.49 593.43,-133.37 672,-137.27 949.14,-151.04 1277.98,-188.48 1415.7,-205.11"/>
<polygon fill="black" stroke="black" points="1415.33,-208.6 1425.68,-206.32 1416.18,-201.65 1415.33,-208.6"/>
<text text-anchor="middle" x="773" y="-151.67" font-family="Times,serif" font-size="12.00">Tiempo:240.0 | Costo:420.0</text>
</g>
<!-- 2&#45;&gt;1 -->
<g id="edge6" class="edge">
<title>2&#45;&gt;1</title>
<path fill="none" stroke="black" d="M341,-152.47C291.4,-146.66 224.73,-143.04 167,-154.27 152.1,-157.17 136.56,-162.49 122.61,-168.21"/>
<polygon fill="black" stroke="black" points="121.05,-165.07 113.23,-172.21 123.8,-171.51 121.05,-165.07"/>
<text text-anchor="middle" x="242.5" y="-157.67" font-family="Times,serif" font-size="12.00">Tiempo:15.0 | Costo:50.0</text>
</g>
<!-- 2&#45;&gt;3 -->
<g id="edge8" class="edge">
<title>2&#45;&gt;3</title>
<path fill="none" stroke="black" d="M468.4,-145.25C536.93,-121.87 661.83,-85.27 772,-85.27 772,-85.27 772,-85.27 1483.5,-85.27 1578.95,-85.27 1688.83,-97.96 1757.1,-107.36"/>
<polygon fill="black" stroke="black" points="1756.89,-110.87 1767.28,-108.78 1757.86,-103.93 1756.89,-110.87"/>
<text text-anchor="middle" x="1141" y="-88.67" font-family="Times,serif" font-size="12.00">Tiempo:175.0 | Costo:340.0</text>
</g>
<!-- 2&#45;&gt;4 -->
<g id="edge7" class="edge">
<title>2&#45;&gt;4</title>
<path fill="none" stroke="black" d="M490.18,-169.31C541.47,-173.56 611.27,-180.82 672,-192.27 682.49,-194.25 693.48,-196.76 704.19,-199.45"/>
<polygon fill="black" stroke="black" points="703.36,-202.85 713.92,-201.97 705.11,-196.08 703.36,-202.85"/>
<text text-anchor="middle" x="592.5" y="-195.67" font-family="Times,serif" font-size="12.00">Tiempo:55.0 | Costo:110.0</text>
</g>
<!-- 3&#45;&gt;1 -->
<g id="edge9" class="edge">
<title>3&#45;&gt;1</title>
<path fill="none" stroke="black" d="M1803.8,-98.06C1784.92,-80.36 1754.43,-54.85 1723,-41.27 1623.93,1.52 1591.42,-1.27 1483.5,-1.27 414.5,-1.27 414.5,-1.27 414.5,-1.27 302.28,-1.27 259.9,11.69 167,-51.27 126.7,-78.58 99.94,-130.17 86.27,-162.52"/>
<polygon fill="black" stroke="black" points="82.98,-161.31 82.45,-171.89 89.47,-163.96 82.98,-161.31"/>
<text text-anchor="middle" x="957" y="-4.67" font-family="Times,serif" font-size="12.00">Tiempo:180.0 | Costo:350.0</text>
</g>
<!-- 3&#45;&gt;4 -->
<g id="edge12" class="edge">
<title>3&#45;&gt;4</title>
<path fill="none" stroke="black" d="M1767.4,-118.95C1713.54,-120.82 1629.58,-124.38 1557,-130.27 1292.19,-151.77 978.58,-191.87 842.58,-209.97"/>
<polygon fill="black" stroke="black" points="841.77,-206.55 832.32,-211.34 842.69,-213.49 841.77,-206.55"/>
<text text-anchor="middle" x="1325" y="-163.67" font-family="Times,serif" font-size="12.00">Tiempo:120.0 | Costo:220.0</text>
</g>
<!-- 3&#45;&gt;6 -->
<g id="edge11" class="edge">
<title>3&#45;&gt;6</title>
<path fill="none" stroke="black" d="M1788.34,-136.28C1769.53,-145.8 1745.56,-156.68 1723,-163.27 1651.51,-184.17 1629.26,-168.22 1557,-186.27 1551.64,-187.61 1546.13,-189.21 1540.66,-190.94"/>
<polygon fill="black" stroke="black" points="1539.26,-187.71 1530.87,-194.19 1541.47,-194.36 1539.26,-187.71"/>
<text text-anchor="middle" x="1640" y="-189.67" font-family="Times,serif" font-size="12.00">Tiempo:150.0 | Costo:280.0</text>
</g>
<!-- 7 -->
<g id="node7" class="node">
<title>7</title>
<polygon fill="white" stroke="black" points="2278,-208.27 2109,-208.27 2109,-170.27 2278,-170.27 2278,-208.27"/>
<text text-anchor="middle" x="2193.5" y="-193.07" font-family="Arial" font-size="14.00">Sucursal Huehuetenango</text>
<text text-anchor="middle" x="2193.5" y="-178.07" font-family="Arial" font-size="14.00">Huehuetenango</text>
</g>
<!-- 3&#45;&gt;7 -->
<g id="edge10" class="edge">
<title>3&#45;&gt;7</title>
<path fill="none" stroke="black" d="M1880.64,-110.21C1935.45,-105.22 2020.89,-102.74 2091,-124.27 2117.31,-132.35 2143.38,-149.29 2162.51,-163.85"/>
<polygon fill="black" stroke="black" points="2160.49,-166.71 2170.53,-170.12 2164.81,-161.2 2160.49,-166.71"/>
<text text-anchor="middle" x="2008" y="-127.67" font-family="Times,serif" font-size="12.00">Tiempo:90.0 | Costo:160.0</text>
</g>
<!-- 4&#45;&gt;1 -->
<g id="edge13" class="edge">
<title>4&#45;&gt;1</title>
<path fill="none" stroke="black" d="M713.96,-218.74C606.11,-217.45 367.56,-213.27 167,-200.27 164.49,-200.11 161.94,-199.93 159.37,-199.74"/>
<polygon fill="black" stroke="black" points="159.62,-196.25 149.38,-198.97 159.07,-203.23 159.62,-196.25"/>
<text text-anchor="middle" x="415.5" y="-216.67" font-family="Times,serif" font-size="12.00">Tiempo:60.0 | Costo:120.0</text>
</g>
<!-- 4&#45;&gt;2 -->
<g id="edge14" class="edge">
<title>4&#45;&gt;2</title>
<path fill="none" stroke="black" d="M750.84,-200.23C731.77,-184.46 702.18,-163.22 672,-154.27 616.34,-137.77 550.87,-140.74 500.14,-147.59"/>
<polygon fill="black" stroke="black" points="499.6,-144.13 490.19,-149.01 500.59,-151.06 499.6,-144.13"/>
<text text-anchor="middle" x="592.5" y="-157.67" font-family="Times,serif" font-size="12.00">Tiempo:55.0 | Costo:110.0</text>
</g>
<!-- 4&#45;&gt;5 -->
<g id="edge15" class="edge">
<title>4&#45;&gt;5</title>
<path fill="none" stroke="black" d="M832.26,-217.27C886.95,-216.92 970.53,-220.36 1040,-240.27 1061.46,-246.42 1083.66,-257.42 1101.67,-267.73"/>
<polygon fill="black" stroke="black" points="1100.29,-270.97 1110.69,-273.02 1103.84,-264.94 1100.29,-270.97"/>
<text text-anchor="middle" x="957" y="-243.67" font-family="Times,serif" font-size="12.00">Tiempo:80.0 | Costo:150.0</text>
</g>
<!-- 5&#45;&gt;1 -->
<g id="edge16" class="edge">
<title>5&#45;&gt;1</title>
<path fill="none" stroke="black" d="M1076.79,-294.46C1064.59,-294.8 1051.9,-295.09 1040,-295.27 966.23,-296.38 947.76,-296.78 874,-295.27 634.74,-290.38 574.76,-289.45 336,-273.27 260.73,-268.17 237.62,-283.83 167,-257.27 143.37,-248.39 120.33,-231.71 103.29,-217.35"/>
<polygon fill="black" stroke="black" points="105.27,-214.44 95.43,-210.53 100.69,-219.73 105.27,-214.44"/>
<text text-anchor="middle" x="592.5" y="-293.67" font-family="Times,serif" font-size="12.00">Tiempo:90.0 | Costo:180.0</text>
</g>
<!-- 5&#45;&gt;4 -->
<g id="edge17" class="edge">
<title>5&#45;&gt;4</title>
<path fill="none" stroke="black" d="M1076.77,-286.28C1022.48,-280.36 942.4,-269.77 874,-253.27 860.86,-250.1 847,-245.94 833.92,-241.62"/>
<polygon fill="black" stroke="black" points="834.68,-238.18 824.09,-238.3 832.44,-244.82 834.68,-238.18"/>
<text text-anchor="middle" x="957" y="-284.67" font-family="Times,serif" font-size="12.00">Tiempo:80.0 | Costo:150.0</text>
</g>
<!-- 5&#45;&gt;6 -->
<g id="edge19" class="edge">
<title>5&#45;&gt;6</title>
<path fill="none" stroke="black" d="M1205.06,-277.6C1265.1,-263.63 1355.07,-242.69 1415.92,-228.53"/>
<polygon fill="black" stroke="black" points="1416.86,-231.91 1425.81,-226.23 1415.27,-225.09 1416.86,-231.91"/>
<text text-anchor="middle" x="1325" y="-271.67" font-family="Times,serif" font-size="12.00">Tiempo:260.0 | Costo:450.0</text>
</g>
<!-- 8 -->
<g id="node8" class="node">
<title>8</title>
<polygon fill="white" stroke="black" points="2588,-298.27 2480,-298.27 2480,-260.27 2588,-260.27 2588,-298.27"/>
<text text-anchor="middle" x="2534" y="-283.07" font-family="Arial" font-size="14.00">Sucursal Petén</text>
<text text-anchor="middle" x="2534" y="-268.07" font-family="Arial" font-size="14.00">Petén</text>
</g>
<!-- 5&#45;&gt;8 -->
<g id="edge18" class="edge">
<title>5&#45;&gt;8</title>
<path fill="none" stroke="black" d="M1205.02,-302.08C1273.05,-311.81 1384.68,-325.27 1481.5,-325.27 1481.5,-325.27 1481.5,-325.27 2194.5,-325.27 2291.25,-325.27 2402.14,-306.59 2469.87,-293.04"/>
<polygon fill="black" stroke="black" points="2470.85,-296.42 2479.95,-291 2469.46,-289.56 2470.85,-296.42"/>
<text text-anchor="middle" x="1824" y="-328.67" font-family="Times,serif" font-size="12.00">Tiempo:420.0 | Costo:700.0</text>
</g>
<!-- 6&#45;&gt;3 -->
<g id="edge20" class="edge">
<title>6&#45;&gt;3</title>
<path fill="none" stroke="black" d="M1498.46,-194.12C1511.93,-178.38 1533.24,-157 1557,-146.27 1561.55,-144.22 1679.77,-131.86 1757.06,-123.96"/>
<polygon fill="black" stroke="black" points="1757.62,-127.42 1767.21,-122.92 1756.9,-120.45 1757.62,-127.42"/>
<text text-anchor="middle" x="1640" y="-149.67" font-family="Times,serif" font-size="12.00">Tiempo:150.0 | Costo:280.0</text>
</g>
<!-- 6&#45;&gt;7 -->
<g id="edge22" class="edge">
<title>6&#45;&gt;7</title>
<path fill="none" stroke="black" d="M1539.25,-210.98C1591.4,-208.87 1671.47,-205.7 1741,-203.27 1864.7,-198.95 2007.49,-194.64 2098.81,-191.96"/>
<polygon fill="black" stroke="black" points="2098.97,-195.46 2108.86,-191.67 2098.77,-188.46 2098.97,-195.46"/>
<text text-anchor="middle" x="1824" y="-206.67" font-family="Times,serif" font-size="12.00">Tiempo:120.0 | Costo:200.0</text>
</g>
<!-- 6&#45;&gt;8 -->
<g id="edge21" class="edge">
<title>6&#45;&gt;8</title>
<path fill="none" stroke="black" d="M1536.05,-232.33C1543.02,-234.3 1550.13,-236.03 1557,-237.27 1637.54,-251.89 1659.22,-241.74 1741,-245.27 2012.03,-256.98 2335.24,-270.82 2469.58,-276.56"/>
<polygon fill="black" stroke="black" points="2469.56,-280.06 2479.7,-276.99 2469.85,-273.07 2469.56,-280.06"/>
<text text-anchor="middle" x="2008" y="-262.67" font-family="Times,serif" font-size="12.00">Tiempo:300.0 | Costo:500.0</text>
</g>
<!-- 7&#45;&gt;3 -->
<g id="edge23" class="edge">
<title>7&#45;&gt;3</title>
<path fill="none" stroke="black" d="M2125.05,-170.22C2113.73,-167.34 2102.07,-164.57 2091,-162.27 2017.95,-147.1 1998.49,-150.15 1925,-137.27 1913.87,-135.32 1902.08,-133.1 1890.64,-130.87"/>
<polygon fill="black" stroke="black" points="1891.2,-127.41 1880.71,-128.91 1889.84,-134.28 1891.2,-127.41"/>
<text text-anchor="middle" x="2008" y="-165.67" font-family="Times,serif" font-size="12.00">Tiempo:90.0 | Costo:160.0</text>
</g>
<!-- 7&#45;&gt;6 -->
<g id="edge24" class="edge">
<title>7&#45;&gt;6</title>
<path fill="none" stroke="black" d="M2108.73,-205.91C2102.74,-206.81 2096.79,-207.61 2091,-208.27 1855.15,-235.34 1794.13,-231.54 1557,-220.27 1554.48,-220.15 1551.91,-220.01 1549.32,-219.85"/>
<polygon fill="black" stroke="black" points="1549.46,-216.35 1539.24,-219.14 1548.97,-223.33 1549.46,-216.35"/>
<text text-anchor="middle" x="1824" y="-231.67" font-family="Times,serif" font-size="12.00">Tiempo:120.0 | Costo:200.0</text>
</g>
<!-- 7&#45;&gt;8 -->
<g id="edge25" class="edge">
<title>7&#45;&gt;8</title>
<path fill="none" stroke="black" d="M2278.1,-205.99C2331.23,-217.34 2401.21,-233.65 2462,-252.27 2466.57,-253.67 2471.26,-255.22 2475.96,-256.84"/>
<polygon fill="black" stroke="black" points="2474.97,-260.2 2485.56,-260.24 2477.31,-253.6 2474.97,-260.2"/>
<text text-anchor="middle" x="2379" y="-255.67" font-family="Times,serif" font-size="12.00">Tiempo:350.0 | Costo:580.0</text>
</g>
</g>
</svg>
